<?xml version="1.0" encoding="utf-8"?>
<!-- Generator: Adobe Illustrator 21.0.0, SVG Export Plug-In . SVG Version: 6.00 Build 0)  -->
<svg version="1.1" id="Layer_1" xmlns="http://www.w3.org/2000/svg" xmlns:xlink="http://www.w3.org/1999/xlink" x="0px" y="0px"
	 viewBox="0 0 1366 768" style="enable-background:new 0 0 1366 768;" xml:space="preserve">
<style type="text/css">
	.st0{fill:url(#SVGID_1_);}
	.st1{fill:none;stroke:#054C7C;stroke-width:2.7305;stroke-miterlimit:10;}
	.st2{fill:none;stroke:#066ABC;stroke-width:3.0773;stroke-miterlimit:10;}
	.st3{fill:none;stroke:#045C99;stroke-width:3.235;stroke-miterlimit:10;}
	.st4{fill:none;stroke:#0678B7;stroke-width:3.4542;stroke-miterlimit:10;}
	.st5{fill:none;stroke:#068DC9;stroke-width:3.4542;stroke-miterlimit:10;}
	.st6{fill:none;stroke:#079ED3;stroke-width:3.937;stroke-miterlimit:10;}
	.st7{fill:none;stroke:#7CDDF7;stroke-width:3;stroke-miterlimit:10;}
	.st8{fill:none;stroke:#033668;stroke-width:2.7305;stroke-miterlimit:10;}
	.st9{fill:none;stroke:#DCEEF9;stroke-width:2.491;stroke-miterlimit:10;}
</style>
<g>
	<linearGradient id="SVGID_1_" gradientUnits="userSpaceOnUse" x1="0" y1="384" x2="1366" y2="384">
		<stop  offset="0" style="stop-color:#1B1464"/>
		<stop  offset="1" style="stop-color:#0C103B"/>
	</linearGradient>
	<rect class="st0" width="1366" height="768"/>
</g>
<ellipse class="st1" cx="11.3" cy="385" rx="393.3" ry="385"/>
<ellipse class="st2" cx="2.5" cy="384.2" rx="295" ry="275.6"/>
<ellipse class="st3" cx="7.5" cy="386" rx="347" ry="339.5"/>
<ellipse class="st4" cx="-1" cy="385.8" rx="221.5" ry="215.3"/>
<circle class="st5" cx="2.5" cy="383.5" r="160"/>
<circle class="st6" cx="-0.5" cy="382.5" r="106"/>
<circle class="st7" cx="-1" cy="383" r="59"/>
<ellipse class="st8" cx="15" cy="383" rx="435" ry="426"/>
<circle class="st9" cx="-0.5" cy="381.5" r="26"/>
<ellipse class="st1" cx="1379.3" cy="770" rx="393.3" ry="385"/>
<ellipse class="st2" cx="1370.5" cy="769.2" rx="295" ry="275.6"/>
<ellipse class="st3" cx="1375.5" cy="771" rx="347" ry="339.5"/>
<ellipse class="st4" cx="1367" cy="770.8" rx="221.5" ry="215.3"/>
<circle class="st5" cx="1370.5" cy="768.5" r="160"/>
<circle class="st6" cx="1367.5" cy="767.5" r="106"/>
<circle class="st7" cx="1367" cy="768" r="59"/>
<ellipse class="st8" cx="1383" cy="768" rx="435" ry="426"/>
<circle class="st9" cx="1367.5" cy="766.5" r="26"/>
</svg>
